<svg xmlns="http://www.w3.org/2000/svg" xmlns:xlink="http://www.w3.org/1999/xlink" width="600" zoomAndPan="magnify" viewBox="0 0 450 449.999984" height="600" preserveAspectRatio="xMidYMid meet" version="1.0"><defs><clipPath id="7b9118e6cf"><path d="M 110 29.53125 L 226 29.53125 L 226 78 L 110 78 Z M 110 29.53125 " clip-rule="nonzero"/></clipPath></defs><rect x="-45" width="540" fill="#ffffff" y="-44.999998" height="539.99998" fill-opacity="1"/><rect x="-45" width="540" fill="#ffffff" y="-44.999998" height="539.99998" fill-opacity="1"/><path fill="#000000" d="M 227.515625 75.355469 C 227.15625 73.917969 227.695312 72.570312 229.226562 71.582031 C 230.664062 70.683594 232.191406 70.234375 233.898438 70.773438 C 234.707031 71.042969 235.515625 71.3125 236.238281 71.671875 C 254.664062 79.667969 273.003906 87.574219 291.339844 95.660156 C 303.117188 100.78125 314.800781 106.082031 326.488281 111.472656 C 330.261719 113.179688 333.859375 115.335938 337.632812 117.132812 C 343.117188 119.828125 348.691406 122.433594 354.265625 125.128906 C 355.34375 125.667969 356.332031 126.207031 357.410156 126.835938 C 357.769531 127.015625 358.039062 127.285156 358.308594 127.554688 C 359.476562 128.722656 359.65625 130.339844 358.757812 131.417969 C 357.859375 132.496094 356.152344 132.585938 354.804688 131.597656 C 353.902344 130.878906 352.914062 130.160156 351.746094 129.261719 C 351.835938 129.980469 351.835938 130.339844 351.925781 130.609375 C 352.824219 132.945312 351.835938 134.742188 350.757812 136.71875 C 346.804688 143.996094 343.027344 151.277344 339.25 158.554688 C 334.847656 167 330.441406 175.535156 326.039062 183.980469 C 325.410156 185.238281 324.78125 186.585938 324.148438 187.933594 C 321.992188 192.246094 319.386719 193.683594 314.621094 192.515625 C 311.925781 191.886719 309.226562 190.898438 306.621094 189.820312 C 302.125 188.023438 297.632812 186.136719 293.226562 184.160156 C 286.484375 181.105469 279.832031 177.78125 273.003906 174.90625 C 262.214844 170.324219 251.25 166.101562 240.371094 161.699219 C 233.988281 159.09375 227.605469 156.308594 221.316406 153.523438 C 219.695312 152.804688 218.347656 151.367188 216.730469 150.289062 C 216.191406 149.929688 215.472656 149.390625 214.84375 149.480469 C 212.773438 149.75 211.15625 148.761719 209.808594 147.414062 C 207.113281 144.445312 205.582031 141.210938 206.84375 136.988281 C 207.832031 133.574219 208.28125 129.980469 209.449219 126.566406 C 212.773438 116.59375 216.640625 106.800781 221.132812 97.277344 C 224.371094 90.449219 227.964844 83.800781 231.472656 76.972656 C 231.742188 76.433594 232.011719 75.894531 232.371094 75.355469 C 231.382812 74.546875 230.484375 74.726562 229.496094 75.085938 C 228.867188 75.265625 228.144531 75.265625 227.515625 75.355469 Z M 271.832031 132.675781 C 271.921875 132.855469 271.921875 132.945312 272.011719 133.125 C 272.550781 133.125 273.09375 133.214844 273.632812 133.125 C 278.035156 132.496094 282.441406 131.6875 286.933594 131.238281 C 298.441406 129.980469 309.855469 128.992188 321.363281 127.824219 C 324.597656 127.464844 327.835938 127.105469 331.070312 126.65625 C 332.058594 126.566406 333.140625 126.386719 333.140625 125.128906 C 333.230469 123.871094 332.152344 123.511719 331.160156 123.242188 C 330.441406 123.0625 329.8125 122.972656 329.09375 122.972656 C 317.5 122.433594 305.992188 123.152344 294.664062 125.578125 C 287.742188 127.105469 280.824219 128.722656 274.261719 131.507812 C 273.453125 131.777344 272.640625 132.226562 271.832031 132.675781 Z M 320.824219 139.683594 C 320.824219 139.773438 320.824219 139.773438 320.824219 139.863281 C 318.128906 139.953125 315.519531 140.042969 312.824219 140.222656 C 311.566406 140.3125 310.308594 140.492188 309.046875 140.761719 C 308.777344 140.851562 308.417969 141.210938 308.328125 141.480469 C 308.238281 141.660156 308.6875 142.019531 308.957031 142.109375 C 309.316406 142.289062 309.675781 142.289062 310.128906 142.378906 C 315.609375 143.636719 321.183594 143.996094 326.847656 143.726562 C 328.914062 143.636719 330.980469 143.636719 333.050781 143.457031 C 333.589844 143.367188 334.398438 142.828125 334.398438 142.378906 C 334.488281 141.929688 333.949219 141.210938 333.410156 140.941406 C 332.78125 140.582031 331.96875 140.402344 331.25 140.402344 C 327.746094 140.132812 324.328125 139.953125 320.824219 139.683594 Z M 259.96875 123.601562 C 260.058594 123.78125 260.148438 123.960938 260.238281 124.050781 C 275.699219 118.390625 291.878906 115.695312 307.878906 111.652344 C 307.25 111.292969 306.621094 111.203125 306.082031 111.292969 C 297.542969 112.910156 288.914062 114.527344 280.464844 116.324219 C 274.53125 117.582031 268.6875 119.378906 263.113281 121.894531 C 261.945312 122.433594 260.957031 123.0625 259.96875 123.601562 Z M 259.96875 123.601562 " fill-opacity="1" fill-rule="nonzero"/><path fill="#000000" d="M 315.339844 292.964844 C 321.183594 302.488281 324.328125 312.734375 324.507812 323.875 C 324.601562 333.667969 323.25 343.28125 321.273438 352.804688 C 320.015625 359.09375 319.027344 365.472656 318.21875 371.851562 C 317.320312 378.769531 318.9375 385.421875 320.914062 392.070312 C 321.363281 393.507812 321.722656 395.035156 321.902344 396.5625 C 322.082031 398.71875 320.464844 399.796875 318.398438 398.988281 C 316.597656 398.269531 315.339844 396.921875 314.621094 395.125 C 312.195312 389.105469 310.488281 382.816406 310.128906 376.253906 C 309.765625 369.785156 310.667969 363.40625 311.835938 357.027344 C 313.453125 348.3125 315.160156 339.507812 316.417969 330.703125 C 317.679688 321.71875 316.957031 312.734375 314.351562 304.019531 C 313.453125 300.960938 312.644531 297.90625 311.835938 294.761719 C 309.40625 295.210938 306.980469 295.660156 304.554688 296.109375 C 299.160156 297.097656 293.855469 297.367188 288.464844 296.199219 C 284.148438 295.210938 280.191406 293.503906 276.597656 290.988281 C 270.035156 286.496094 264.730469 280.65625 260.058594 274.1875 C 258.710938 272.300781 257.898438 269.875 256.730469 267.808594 C 256.550781 267.449219 256.191406 267 255.832031 266.820312 C 251.429688 265.292969 246.933594 264.125 242.707031 262.148438 C 229.046875 255.679688 215.5625 248.941406 202.078125 242.203125 C 199.921875 241.125 198.03125 239.597656 195.964844 238.339844 C 195.605469 238.160156 195.066406 237.980469 194.707031 238.070312 C 179.425781 242.472656 165.132812 241.125 152.097656 231.242188 C 146.613281 227.109375 141.761719 222.34375 138.882812 215.785156 C 135.828125 217.761719 132.953125 219.648438 130.164062 221.535156 C 128.1875 222.882812 126.390625 224.414062 124.410156 225.761719 C 119.019531 229.445312 115.0625 234.476562 111.289062 239.6875 C 103.828125 249.929688 95.644531 259.453125 85.847656 267.539062 C 81.984375 270.683594 77.578125 273.378906 73.441406 276.253906 C 73.261719 276.34375 73.082031 276.523438 72.902344 276.523438 C 65.980469 279.039062 59.421875 282.453125 51.78125 282.902344 C 45.9375 283.261719 40.183594 283.800781 34.519531 282.09375 C 26.429688 279.757812 19.597656 275.445312 14.113281 269.066406 C 9.171875 263.40625 5.394531 257.117188 3.328125 249.839844 C 2.160156 245.617188 1.351562 241.304688 0.8125 236.992188 C 0.00390625 231.0625 1.441406 225.402344 2.789062 219.738281 C 5.933594 206.621094 11.238281 194.3125 16.992188 182.183594 C 21.753906 172.121094 27.238281 162.507812 33.171875 153.074219 C 38.296875 144.984375 44.410156 137.617188 50.429688 130.160156 C 59.421875 119.019531 68.410156 107.789062 77.398438 96.648438 C 83.332031 89.28125 89.265625 81.824219 96.097656 75.265625 C 98.613281 72.839844 101.398438 70.863281 104.1875 68.707031 C 104.457031 68.527344 104.816406 68.527344 105.085938 68.4375 C 105.085938 68.796875 105.175781 69.246094 104.996094 69.515625 C 104.636719 70.054688 104.097656 70.59375 103.648438 71.132812 C 97.445312 76.882812 92.320312 83.621094 87.375 90.449219 C 75.960938 106.261719 64.273438 121.804688 52.140625 136.988281 C 41.621094 150.199219 33.351562 164.664062 25.890625 179.757812 C 20.316406 190.988281 15.285156 202.488281 11.597656 214.527344 C 10.070312 219.648438 9.082031 224.953125 8.003906 230.164062 C 7.28125 233.667969 7.824219 237.261719 8.453125 240.765625 C 10.070312 250.648438 14.382812 259.363281 21.484375 266.371094 C 29.394531 274.097656 38.835938 278.050781 50.070312 276.253906 C 53.398438 275.714844 56.632812 275.085938 59.960938 274.546875 C 64.09375 273.917969 67.78125 272.03125 71.375 269.964844 C 80.632812 264.484375 88.09375 256.9375 94.835938 248.671875 C 99.0625 243.460938 103.378906 238.25 107.601562 233.128906 C 113.804688 225.582031 121.445312 219.828125 130.074219 215.425781 C 132.5 214.167969 135.019531 212.910156 137.894531 212.820312 C 138.074219 212.820312 138.253906 212.820312 138.433594 212.730469 C 139.691406 211.742188 140.503906 212.460938 141.402344 213.359375 C 143.289062 215.425781 145.175781 217.492188 147.152344 219.558594 C 151.558594 224.050781 156.683594 227.558594 162.347656 230.074219 C 170.167969 233.578125 178.4375 234.65625 186.796875 232.949219 C 191.558594 231.960938 195.605469 232.679688 200.101562 234.566406 C 215.113281 240.945312 229.855469 248.042969 244.597656 254.960938 C 248.101562 256.667969 251.789062 258.015625 255.472656 259.363281 C 257.808594 260.171875 259.339844 261.519531 260.597656 263.496094 C 265.449219 271.222656 271.921875 277.601562 279.023438 283.261719 C 285.855469 288.652344 293.585938 290.269531 302.125 289.101562 C 305.183594 288.652344 308.238281 288.113281 311.296875 287.574219 C 313.003906 287.214844 314.53125 287.394531 315.699219 288.832031 C 316.507812 289.730469 316.417969 291.078125 315.339844 292.964844 Z M 315.339844 292.964844 " fill-opacity="1" fill-rule="nonzero"/><path fill="#000000" d="M 449.996094 204.105469 C 449.007812 217.492188 448.378906 231.960938 446.851562 246.425781 C 445.59375 258.464844 443.167969 270.414062 441.1875 282.363281 C 437.953125 301.589844 433.007812 320.460938 427.613281 339.148438 C 425.097656 347.773438 421.503906 356.039062 418.355469 364.484375 C 415.390625 372.210938 412.152344 379.847656 407.660156 386.949219 C 400.738281 397.910156 392.199219 407.253906 380.960938 413.902344 C 376.378906 416.597656 371.34375 418.125 366.039062 418.84375 C 358.847656 419.742188 351.65625 420.28125 344.554688 418.664062 C 340.960938 417.855469 337.363281 416.777344 333.859375 415.519531 C 329.992188 414.171875 326.847656 411.566406 324.417969 408.242188 C 323.609375 407.164062 322.800781 406.085938 321.992188 404.917969 C 321.542969 404.289062 321.183594 403.660156 321.09375 402.941406 C 320.824219 401.683594 321.183594 400.605469 322.261719 399.796875 C 323.339844 398.988281 324.507812 398.988281 325.589844 399.617188 C 326.21875 399.976562 326.847656 400.515625 327.207031 401.144531 C 330.351562 406.175781 335.117188 408.601562 340.601562 410.039062 C 349.5 412.464844 358.488281 412.554688 367.476562 411.117188 C 372.960938 410.21875 377.726562 407.523438 382.128906 404.289062 C 393.546875 396.023438 401.726562 385.242188 407.390625 372.480469 C 411.972656 362.058594 416.289062 351.457031 420.0625 340.675781 C 423.03125 332.230469 424.917969 323.335938 427.433594 314.710938 C 431.390625 301.140625 433.636719 287.214844 436.335938 273.289062 C 438.761719 260.710938 440.738281 248.042969 441.996094 235.285156 C 442.445312 230.613281 442.535156 225.851562 442.898438 221.085938 C 443.347656 214.886719 444.15625 208.6875 444.335938 202.488281 C 444.695312 190.71875 443.707031 179.128906 440.648438 167.71875 C 438.941406 161.339844 435.074219 156.398438 430.761719 151.636719 C 425.097656 145.433594 417.996094 141.390625 410.355469 138.15625 C 405.589844 136.089844 400.828125 135.640625 396.0625 138.425781 C 393.996094 139.683594 391.660156 140.671875 389.410156 141.660156 C 385.816406 143.277344 382.128906 143.546875 378.355469 142.46875 C 372.332031 140.851562 366.578125 138.335938 361.546875 134.5625 C 359.835938 133.304688 359.386719 132.136719 360.015625 130.96875 C 360.644531 129.800781 362.085938 129.351562 363.972656 130.070312 C 366.757812 131.058594 369.457031 132.136719 372.152344 133.304688 C 378.355469 135.910156 384.46875 135.910156 390.667969 133.125 C 393.1875 132.046875 395.882812 131.058594 398.671875 130.429688 C 403.613281 129.351562 408.378906 130.609375 412.78125 132.765625 C 416.738281 134.742188 420.511719 137.078125 424.289062 139.324219 C 428.695312 141.929688 432.289062 145.523438 435.4375 149.390625 C 438.222656 152.804688 440.738281 156.488281 442.988281 160.261719 C 445.414062 164.484375 446.222656 169.335938 447.210938 174.007812 C 449.457031 183.800781 449.726562 193.414062 449.996094 204.105469 Z M 449.996094 204.105469 " fill-opacity="1" fill-rule="nonzero"/><path fill="#000000" d="M 383.929688 168.257812 C 392.289062 168.617188 400.289062 170.144531 407.75 173.917969 C 409.636719 174.816406 411.34375 176.074219 413.050781 177.332031 C 413.773438 177.871094 414.402344 178.589844 413.863281 179.578125 C 413.324219 180.476562 412.332031 180.117188 411.613281 179.847656 C 408.558594 178.679688 405.679688 177.332031 402.625 176.164062 C 391.75 172.210938 380.691406 171.402344 369.636719 175.265625 C 351.476562 181.644531 340.152344 199.433594 342.667969 218.480469 C 344.824219 235.375 353.992188 247.683594 368.554688 256.039062 C 378.714844 261.878906 389.859375 264.304688 401.457031 262.328125 C 417.097656 259.632812 428.515625 251.367188 433.277344 235.644531 C 435.527344 228.367188 436.425781 220.726562 435.074219 213.179688 C 433.457031 204.105469 429.144531 196.199219 423.300781 189.101562 C 422.402344 188.023438 421.234375 187.304688 420.0625 186.496094 C 419.253906 185.957031 418.535156 185.328125 418.894531 184.429688 C 419.074219 183.800781 419.792969 182.992188 420.332031 182.992188 C 421.054688 182.992188 421.863281 183.441406 422.402344 183.980469 C 423.480469 185.058594 424.199219 186.316406 425.277344 187.304688 C 433.277344 194.671875 437.953125 203.925781 440.378906 214.4375 C 444.425781 231.601562 438.492188 245.617188 425.816406 256.667969 C 410.445312 270.054688 392.378906 272.570312 373.410156 265.832031 C 357.410156 260.171875 345.542969 249.390625 339.25 233.488281 C 333.410156 218.75 333.949219 204.195312 342.398438 190.449219 C 349.410156 179.039062 360.015625 172.660156 372.960938 169.964844 C 376.558594 168.886719 380.242188 168.707031 383.929688 168.257812 Z M 383.929688 168.257812 " fill-opacity="1" fill-rule="nonzero"/><path fill="#000000" d="M 197.851562 112.910156 C 198.03125 126.296875 192.550781 137.257812 182.75 146.0625 C 174.03125 153.972656 163.875 159.09375 152.007812 159.992188 C 132.589844 161.429688 115.871094 155.410156 103.285156 140.222656 C 81.445312 113.988281 91.960938 74.996094 123.960938 63.042969 C 138.253906 57.742188 152.367188 58.460938 166.03125 65.558594 C 167.199219 66.097656 168.1875 66.90625 169.265625 67.625 C 169.535156 67.804688 169.535156 68.253906 169.71875 68.613281 C 169.355469 68.796875 168.90625 69.066406 168.546875 68.976562 C 167.828125 68.886719 167.199219 68.613281 166.570312 68.34375 C 154.34375 64.03125 141.941406 62.953125 129.355469 66.90625 C 121.625 69.335938 114.882812 73.378906 109.308594 79.308594 C 97.175781 92.246094 94.746094 111.203125 103.738281 127.015625 C 112.457031 142.46875 125.941406 151.007812 143.558594 152.984375 C 152.097656 153.882812 160.367188 152.445312 168.277344 149.121094 C 179.605469 144.355469 186.976562 135.820312 191.199219 124.320312 C 192.820312 119.828125 194.167969 115.246094 193.988281 110.484375 C 193.898438 107.519531 193.539062 104.554688 192.820312 101.679688 C 192.191406 98.714844 191.109375 95.839844 190.121094 93.054688 C 187.605469 85.507812 182.839844 79.578125 176.367188 74.90625 C 175.917969 74.636719 175.46875 74.367188 175.019531 74.097656 C 174.03125 73.46875 173.761719 72.480469 174.300781 71.671875 C 174.929688 70.863281 176.007812 70.773438 176.90625 71.582031 C 182.480469 76.613281 187.515625 82.183594 191.558594 88.5625 C 193.628906 91.796875 195.605469 95.210938 196.234375 99.074219 C 197.042969 103.65625 197.492188 108.238281 198.121094 112.910156 C 198.121094 112.820312 198.03125 112.820312 197.851562 112.910156 Z M 197.851562 112.910156 " fill-opacity="1" fill-rule="nonzero"/><path fill="#000000" d="M 314.710938 203.207031 C 313.453125 202.847656 312.105469 202.757812 311.027344 202.21875 C 296.015625 194.761719 280.371094 188.652344 264.910156 182.273438 C 253.316406 177.511719 242.078125 171.851562 230.664062 166.640625 C 225.449219 164.304688 220.234375 161.96875 215.113281 159.632812 C 214.125 159.183594 213.222656 158.554688 212.324219 157.925781 C 211.605469 157.386719 211.15625 156.667969 211.605469 155.769531 C 212.054688 154.871094 212.953125 155.050781 213.671875 155.320312 C 220.144531 157.65625 226.796875 159.8125 233.179688 162.417969 C 243.609375 166.730469 253.945312 171.402344 264.371094 175.714844 C 272.820312 179.21875 281.453125 182.363281 289.902344 185.957031 C 297.183594 189.101562 304.285156 192.605469 311.476562 196.019531 C 312.644531 196.558594 313.8125 197.007812 315.160156 196.378906 C 316.148438 195.929688 317.410156 196.019531 318.488281 195.75 C 321.542969 195.03125 323.96875 193.503906 325.5 190.71875 C 330.980469 181.105469 336.015625 171.3125 340.601562 161.25 C 344.734375 152.175781 348.691406 143.007812 354.714844 135.011719 C 355.164062 134.472656 355.882812 134.023438 356.421875 133.574219 C 356.601562 134.382812 356.960938 135.28125 356.78125 136 C 356.152344 138.335938 355.433594 140.761719 354.625 143.007812 C 352.285156 149.121094 349.769531 155.140625 347.433594 161.25 C 344.644531 168.617188 341.589844 175.804688 337.632812 182.632812 C 335.296875 186.855469 332.601562 190.898438 329.8125 194.761719 C 326.308594 199.792969 320.644531 201.769531 314.710938 203.207031 Z M 314.710938 203.207031 " fill-opacity="1" fill-rule="nonzero"/><path fill="#000000" d="M 314.710938 219.109375 C 314.082031 218.929688 313.363281 218.839844 312.734375 218.660156 C 305.8125 216.773438 298.800781 216.683594 292.058594 219.289062 C 274.53125 226.03125 269.765625 244.71875 275.070312 258.195312 C 276.867188 262.777344 279.742188 266.640625 283.519531 269.785156 C 288.015625 273.46875 292.867188 276.523438 298.621094 277.421875 C 308.777344 279.128906 317.679688 276.253906 324.238281 268.257812 C 332.78125 257.925781 333.679688 246.246094 329.09375 233.9375 C 327.476562 229.535156 323.96875 226.390625 320.375 223.421875 C 320.195312 223.332031 320.105469 223.242188 319.925781 223.152344 C 319.207031 222.703125 318.847656 222.074219 319.386719 221.265625 C 319.925781 220.457031 320.734375 220.636719 321.363281 221.175781 C 323.070312 222.523438 324.871094 223.78125 326.308594 225.308594 C 331.339844 231.0625 335.835938 237.171875 336.644531 245.078125 C 337.632812 254.960938 335.207031 264.035156 328.015625 271.3125 C 322.171875 277.332031 315.25 281.644531 306.800781 282.8125 C 296.734375 284.160156 287.113281 283.261719 279.113281 276.253906 C 268.148438 266.640625 264.101562 254.332031 268.058594 240.40625 C 272.011719 226.300781 281.992188 218.03125 296.464844 215.605469 C 302.214844 214.617188 307.878906 215.335938 313.183594 217.761719 C 313.722656 218.03125 314.261719 218.390625 314.800781 218.660156 C 314.800781 218.839844 314.800781 219.019531 314.710938 219.109375 Z M 314.710938 219.109375 " fill-opacity="1" fill-rule="nonzero"/><path fill="#000000" d="M 191.46875 163.496094 C 190.929688 163.40625 190.390625 163.40625 189.851562 163.316406 C 182.929688 161.699219 176.007812 161.609375 169.265625 164.125 C 156.683594 168.617188 148.863281 180.746094 150.03125 193.863281 C 151.199219 207.25 161.265625 218.300781 174.210938 220.546875 C 191.109375 223.511719 206.300781 211.652344 207.5625 194.582031 C 207.921875 189.101562 207.472656 183.800781 205.222656 178.769531 C 203.335938 174.546875 200.730469 171.042969 197.222656 168.167969 C 196.683594 167.71875 196.054688 167.449219 195.695312 166.910156 C 195.425781 166.460938 195.335938 165.742188 195.515625 165.292969 C 195.695312 165.023438 196.503906 164.84375 196.953125 164.933594 C 197.582031 165.113281 198.121094 165.5625 198.660156 165.921875 C 206.664062 171.761719 211.695312 179.398438 213.222656 189.28125 C 213.941406 194.042969 213.132812 198.714844 211.515625 203.207031 C 206.664062 217.222656 192.640625 227.019531 177.898438 226.480469 C 162.34375 226.03125 147.152344 214.796875 145.175781 196.558594 C 143.378906 179.847656 154.433594 163.855469 170.707031 159.992188 C 177.179688 158.464844 183.558594 158.914062 189.582031 161.699219 C 190.300781 162.058594 190.929688 162.507812 191.648438 162.957031 C 191.558594 163.136719 191.558594 163.316406 191.46875 163.496094 Z M 191.46875 163.496094 " fill-opacity="1" fill-rule="nonzero"/><g clip-path="url(#7b9118e6cf)"><path fill="#000000" d="M 160.546875 29.53125 C 165.492188 29.980469 170.707031 30.789062 175.46875 33.214844 C 181.132812 36.089844 186.707031 38.964844 192.191406 42.199219 C 197.222656 45.164062 200.820312 49.566406 202.167969 55.40625 C 202.796875 58.191406 204.144531 60.4375 206.574219 61.964844 C 211.246094 64.75 215.832031 67.625 220.503906 70.414062 C 221.40625 70.953125 222.394531 71.402344 223.292969 71.941406 C 225.089844 73.019531 225.808594 74.816406 225 76.34375 C 224.191406 77.871094 222.394531 78.410156 220.503906 77.511719 C 217.628906 76.074219 214.664062 74.636719 211.964844 72.839844 C 208.820312 70.773438 205.851562 68.433594 202.796875 66.1875 C 199.921875 64.03125 198.03125 61.246094 197.222656 57.832031 C 195.964844 52.800781 192.730469 49.386719 188.324219 46.960938 C 183.558594 44.265625 178.796875 41.75 173.941406 39.234375 C 170.167969 37.257812 166.03125 36.269531 161.894531 35.550781 C 158.480469 34.921875 155.246094 35.640625 152.097656 36.628906 C 146.613281 38.425781 141.671875 41.210938 136.996094 44.535156 C 128.726562 50.375 120.546875 56.394531 112.996094 63.222656 C 112.546875 63.671875 112.007812 64.03125 111.378906 64.390625 C 111.109375 64.570312 110.566406 64.480469 110.296875 64.300781 C 110.117188 64.121094 110.027344 63.492188 110.207031 63.222656 C 110.660156 62.503906 111.109375 61.695312 111.648438 61.066406 C 116.679688 54.957031 122.164062 49.296875 128.546875 44.625 C 133.492188 41.03125 138.253906 37.078125 143.828125 34.472656 C 148.503906 32.226562 153.265625 30.339844 158.480469 29.980469 C 159.199219 29.621094 159.648438 29.621094 160.546875 29.53125 Z M 160.546875 29.53125 " fill-opacity="1" fill-rule="nonzero"/></g><path fill="#000000" d="M 324.960938 248.042969 C 325.140625 260.441406 316.328125 269.964844 304.195312 270.773438 C 290.980469 271.671875 282.441406 261.96875 281.183594 252.355469 C 279.5625 240.496094 287.023438 229.535156 298.53125 227.378906 C 302.394531 226.660156 306.171875 227.019531 309.585938 228.996094 C 310.21875 229.355469 310.667969 230.164062 311.207031 230.703125 C 310.488281 230.792969 309.765625 231.0625 309.046875 230.972656 C 305.363281 230.523438 301.765625 230.433594 298.261719 231.511719 C 290.171875 234.117188 285.316406 241.753906 286.664062 249.929688 C 288.015625 257.835938 295.476562 263.945312 303.476562 263.765625 C 313.273438 263.496094 320.644531 254.511719 319.207031 244.449219 C 318.757812 241.304688 317.859375 238.25 315.699219 235.824219 C 315.070312 235.195312 314.980469 234.386719 315.699219 233.667969 C 316.417969 232.949219 317.226562 233.128906 317.949219 233.757812 C 322.351562 237.890625 325.140625 242.742188 324.960938 248.042969 Z M 324.960938 248.042969 " fill-opacity="1" fill-rule="nonzero"/><path fill="#000000" d="M 330.261719 283.710938 C 330.53125 284.070312 330.890625 284.339844 331.070312 284.699219 C 333.230469 288.203125 335.117188 291.796875 336.015625 295.839844 C 336.285156 297.1875 336.824219 298.535156 337.453125 299.792969 C 340.152344 305.546875 340.601562 311.746094 340.0625 317.945312 C 338.621094 333.488281 334.578125 348.582031 330.441406 363.585938 C 329.453125 367.089844 328.644531 370.773438 328.195312 374.367188 C 327.65625 378.589844 328.734375 382.726562 330.53125 386.5 C 332.332031 390.453125 335.386719 393.058594 339.882812 393.777344 C 342.9375 394.316406 346.082031 394.675781 349.140625 395.214844 C 354.265625 396.113281 359.386719 395.574219 364.511719 395.125 C 365.050781 395.035156 365.589844 394.855469 366.128906 394.675781 C 366.757812 394.496094 367.296875 394.226562 367.925781 394.136719 C 369.636719 393.867188 371.164062 394.675781 371.792969 396.023438 C 372.421875 397.371094 371.972656 398.898438 370.625 399.976562 C 369.007812 401.324219 367.117188 401.953125 365.140625 402.222656 C 358.308594 403.121094 351.566406 402.941406 344.914062 401.144531 C 344.015625 400.875 343.027344 400.695312 342.128906 400.515625 C 334.398438 399.167969 330.082031 394.226562 328.015625 386.949219 C 325.5 378.140625 325.769531 369.246094 327.65625 360.441406 C 330.171875 349.03125 332.78125 337.621094 335.296875 326.210938 C 336.105469 322.617188 336.824219 319.023438 337.003906 315.429688 C 337.273438 310.667969 337.363281 305.816406 335.65625 301.140625 C 335.117188 299.613281 334.757812 297.90625 334.308594 296.378906 C 333.230469 293.054688 332.058594 289.730469 330.980469 286.40625 C 330.710938 285.597656 330.441406 284.789062 330.082031 283.890625 C 329.992188 283.800781 330.171875 283.800781 330.261719 283.710938 Z M 330.261719 283.710938 " fill-opacity="1" fill-rule="nonzero"/><path fill="#000000" d="M 133.671875 200.871094 C 133.3125 201.140625 132.953125 201.589844 132.5 201.769531 C 130.164062 203.027344 127.828125 204.195312 125.492188 205.453125 C 118.929688 208.777344 112.367188 212.101562 107.152344 217.402344 C 102.566406 221.984375 98.34375 226.75 94.027344 231.601562 C 88.453125 237.890625 83.152344 244.449219 77.578125 250.738281 C 72.363281 256.488281 66.070312 261.070312 59.871094 265.832031 C 58.160156 267.179688 56.003906 268.078125 54.027344 269.066406 C 51.058594 270.503906 47.914062 270.414062 44.769531 269.425781 C 43.867188 269.15625 42.878906 268.707031 43.148438 267.71875 C 43.328125 267.089844 44.136719 266.460938 44.859375 266.191406 C 45.9375 265.832031 47.195312 265.742188 48.363281 265.5625 C 52.5 265.023438 56.09375 263.316406 58.878906 260.351562 C 64.363281 254.691406 69.578125 248.941406 74.882812 243.101562 C 78.925781 238.609375 82.882812 233.9375 86.835938 229.265625 C 97.085938 217.042969 110.117188 208.957031 124.949219 203.386719 C 127.378906 202.488281 129.714844 201.589844 132.140625 200.78125 C 132.589844 200.601562 133.042969 200.601562 133.582031 200.601562 C 133.582031 200.601562 133.582031 200.78125 133.671875 200.871094 Z M 133.671875 200.871094 " fill-opacity="1" fill-rule="nonzero"/><path fill="#000000" d="M 190.660156 178.589844 C 189.941406 178.320312 189.3125 178.050781 188.683594 177.691406 C 185.539062 175.984375 182.210938 174.996094 178.617188 175.175781 C 171.605469 175.625 166.390625 179.039062 163.335938 185.328125 C 160.367188 191.527344 161.265625 197.546875 165.492188 203.027344 C 168.1875 206.53125 172.054688 207.878906 176.1875 208.238281 C 186.886719 209.226562 194.707031 202.308594 195.066406 191.527344 C 195.15625 189.28125 194.707031 187.125 193.539062 185.238281 C 193.449219 185.058594 193.269531 184.878906 193.179688 184.699219 C 192.640625 183.441406 193 182.183594 194.078125 181.644531 C 195.15625 181.105469 196.414062 181.554688 197.042969 182.8125 C 204.503906 196.378906 196.503906 212.550781 181.222656 214.796875 C 177.898438 215.246094 174.75 214.886719 171.695312 213.628906 C 162.4375 209.765625 154.433594 199.074219 158.570312 186.40625 C 162.4375 174.546875 176.457031 168.976562 187.246094 174.996094 C 188.324219 175.625 189.222656 176.433594 190.210938 177.152344 C 190.570312 177.421875 190.75 177.871094 191.019531 178.230469 C 190.839844 178.320312 190.75 178.5 190.660156 178.589844 Z M 190.660156 178.589844 " fill-opacity="1" fill-rule="nonzero"/><path fill="#000000" d="M 139.0625 89.011719 C 141.222656 85.6875 143.558594 82.183594 145.714844 78.679688 C 146.882812 76.703125 148.683594 76.253906 150.660156 76.34375 C 151.648438 76.34375 152.726562 76.523438 153.625 76.882812 C 157.761719 78.5 161.894531 80.117188 165.851562 82.003906 C 168.90625 83.441406 169.535156 84.699219 168.816406 88.023438 C 168.007812 91.796875 166.929688 95.570312 165.941406 99.433594 C 168.726562 100.691406 171.785156 102.128906 174.75 103.566406 C 176.277344 104.285156 177.71875 105.003906 179.15625 105.992188 C 181.042969 107.25 181.222656 108.507812 180.324219 110.574219 C 177.898438 115.875 175.378906 121.265625 172.953125 126.566406 C 171.425781 129.890625 167.828125 131.597656 164.414062 130.25 C 160.457031 128.632812 156.683594 126.746094 152.816406 124.949219 C 152.457031 124.769531 152.277344 124.230469 151.917969 123.78125 C 152.367188 123.601562 152.90625 123.152344 153.265625 123.242188 C 155.964844 123.871094 158.75 124.5 161.355469 125.21875 C 162.886719 125.667969 164.414062 126.386719 165.941406 126.835938 C 167.738281 127.464844 169.535156 126.746094 170.347656 125.039062 C 172.59375 120.1875 174.839844 115.246094 176.996094 110.304688 C 177.089844 110.035156 177.179688 109.765625 177.359375 109.316406 C 176.277344 108.867188 175.289062 108.328125 174.210938 107.878906 C 171.246094 106.800781 168.277344 105.722656 165.3125 104.554688 C 164.234375 104.105469 163.15625 103.476562 161.894531 102.847656 C 159.648438 104.734375 156.863281 106.261719 153.714844 107.160156 C 152.90625 107.429688 151.828125 108.148438 151.289062 106.980469 C 150.75 105.8125 152.007812 105.363281 152.816406 104.914062 C 155.515625 103.65625 158.300781 102.488281 161.085938 101.320312 C 159.738281 99.523438 160.636719 97.90625 161.445312 96.109375 C 162.707031 93.324219 163.605469 90.449219 164.683594 87.664062 C 164.953125 86.945312 164.773438 86.585938 164.054688 86.226562 C 159.46875 83.890625 154.792969 81.554688 150.210938 79.128906 C 149.402344 78.679688 148.59375 78.230469 147.605469 77.691406 C 147.511719 77.871094 147.421875 78.140625 147.242188 78.410156 C 145.265625 82.542969 143.289062 86.675781 141.492188 90.988281 C 140.863281 92.335938 140.050781 93.863281 140.863281 95.570312 C 141.402344 96.738281 141.851562 97.996094 142.210938 99.253906 C 142.390625 99.792969 142.210938 100.421875 142.210938 100.960938 C 141.671875 100.691406 140.863281 100.511719 140.683594 100.0625 C 139.871094 98.355469 139.152344 96.648438 138.613281 94.851562 C 138.34375 94.042969 138.074219 93.59375 137.265625 93.144531 C 133.042969 91.078125 128.90625 88.921875 124.769531 86.675781 C 124.140625 86.316406 123.332031 85.328125 123.421875 84.878906 C 123.78125 83.710938 124.949219 84.339844 125.671875 84.519531 C 130.34375 85.957031 134.75 87.484375 139.0625 89.011719 Z M 139.0625 89.011719 " fill-opacity="1" fill-rule="nonzero"/><path fill="#000000" d="M 227.425781 75.355469 C 227.335938 76.164062 227.425781 77.152344 227.066406 77.871094 C 224.191406 84.519531 221.132812 91.078125 218.4375 97.726562 C 213.671875 109.585938 208.011719 121.085938 203.964844 133.304688 C 203.335938 135.101562 202.886719 136.988281 202.347656 138.875 C 201.269531 142.648438 202.527344 145.792969 205.042969 148.492188 C 205.941406 149.480469 206.84375 150.46875 207.742188 151.546875 C 208.460938 152.355469 208.820312 153.523438 208.011719 154.332031 C 207.472656 154.960938 206.390625 155.410156 205.492188 155.320312 C 203.515625 155.320312 201.898438 154.332031 200.550781 152.894531 C 196.234375 148.3125 194.4375 143.097656 195.964844 136.808594 C 197.582031 130.429688 199.832031 124.320312 202.707031 118.480469 C 208.191406 107.160156 213.222656 95.660156 219.875 84.878906 C 221.675781 82.003906 223.652344 79.128906 225.628906 76.34375 C 226.078125 75.894531 226.886719 75.714844 227.425781 75.355469 C 227.515625 75.355469 227.425781 75.355469 227.425781 75.355469 Z M 227.425781 75.355469 " fill-opacity="1" fill-rule="nonzero"/><path fill="#000000" d="M 128.367188 113.179688 C 125.671875 112.101562 123.152344 111.203125 120.816406 110.125 C 118.929688 109.316406 117.039062 108.328125 115.421875 107.25 C 112.726562 105.363281 112.1875 103.386719 113.625 100.421875 C 115.871094 96.019531 118.210938 91.707031 120.546875 87.304688 C 120.816406 86.855469 121.175781 86.496094 121.535156 86.046875 C 121.625 85.957031 121.714844 85.957031 122.253906 85.6875 C 122.074219 86.496094 121.984375 87.035156 121.804688 87.484375 C 120.1875 91.347656 118.570312 95.210938 116.949219 99.164062 C 116.769531 99.613281 116.679688 100.0625 116.5 100.511719 C 115.78125 102.9375 115.691406 103.027344 118.121094 104.015625 C 120.816406 105.183594 123.601562 106.171875 126.300781 107.339844 C 127.738281 107.96875 129.085938 108.777344 130.34375 109.675781 C 131.691406 110.664062 132.140625 112.101562 131.421875 113.808594 C 129.804688 117.761719 128.097656 121.625 126.480469 125.578125 C 126.210938 126.117188 125.941406 126.65625 125.671875 127.285156 C 124.589844 129.800781 124.589844 130.160156 127.199219 131.328125 C 130.433594 132.765625 133.671875 133.933594 136.996094 135.191406 C 138.34375 135.730469 139.691406 136.089844 140.953125 136.628906 C 142.03125 137.078125 142.75 136.808594 143.199219 135.820312 C 144.816406 132.316406 146.34375 128.902344 147.964844 125.398438 C 148.324219 124.679688 148.683594 123.871094 149.222656 123.332031 C 149.582031 122.972656 150.480469 122.703125 150.839844 122.972656 C 151.289062 123.242188 151.378906 124.050781 151.558594 124.589844 C 151.648438 124.859375 151.378906 125.21875 151.199219 125.578125 C 149.761719 128.722656 148.324219 131.957031 146.792969 135.101562 C 146.433594 135.910156 146.074219 136.808594 145.535156 137.617188 C 144.007812 140.402344 142.300781 141.210938 139.332031 140.222656 C 134.75 138.695312 130.253906 136.808594 125.671875 135.101562 C 124.859375 134.832031 124.140625 134.203125 123.511719 133.664062 C 121.265625 131.777344 120.90625 130.160156 122.074219 127.554688 C 123.511719 124.5 125.128906 121.535156 126.570312 118.480469 C 127.109375 116.59375 127.648438 114.886719 128.367188 113.179688 Z M 128.367188 113.179688 " fill-opacity="1" fill-rule="nonzero"/><path fill="#000000" d="M 429.59375 230.34375 C 429.863281 238.25 421.863281 244.179688 413.683594 241.484375 C 408.917969 239.867188 405.5 236.632812 404.332031 231.691406 C 402.804688 225.492188 407.300781 218.929688 413.863281 217.402344 C 416.199219 216.863281 418.445312 216.863281 420.695312 217.671875 C 421.59375 217.941406 422.402344 218.390625 423.121094 218.929688 C 423.570312 219.289062 423.660156 220.097656 423.929688 220.636719 C 423.300781 220.726562 422.671875 220.996094 422.132812 220.816406 C 419.792969 220.097656 417.546875 219.378906 415.03125 220.007812 C 411.703125 220.726562 409.457031 222.972656 409.1875 225.761719 C 408.917969 228.996094 410.804688 232.230469 413.863281 233.398438 C 417.097656 234.65625 420.332031 234.386719 423.390625 232.769531 C 426.355469 231.152344 427.253906 228.277344 425.996094 225.039062 C 425.816406 224.589844 425.457031 224.230469 425.457031 223.871094 C 425.457031 223.332031 425.636719 222.882812 425.726562 222.34375 C 426.265625 222.523438 426.984375 222.523438 427.164062 222.792969 C 427.976562 224.230469 428.695312 225.761719 429.144531 227.289062 C 429.59375 228.1875 429.503906 229.265625 429.59375 230.34375 Z M 429.59375 230.34375 " fill-opacity="1" fill-rule="nonzero"/><path fill="#000000" d="M 399.839844 207.878906 C 396.152344 207.878906 392.378906 206.441406 389.5 203.207031 C 386.535156 199.972656 385.726562 196.199219 387.074219 192.066406 C 388.78125 186.945312 392.109375 183.351562 397.679688 182.363281 C 400.46875 181.824219 403.074219 182.183594 405.589844 183.710938 C 406.042969 183.980469 406.492188 184.429688 406.851562 184.789062 C 407.03125 184.96875 407.03125 185.417969 406.941406 185.597656 C 406.851562 185.777344 406.402344 185.957031 406.132812 185.867188 C 405.5 185.777344 404.960938 185.507812 404.421875 185.238281 C 401.546875 184.160156 398.671875 183.890625 395.703125 185.238281 C 391.480469 187.214844 390.128906 191.078125 392.46875 195.121094 C 394.265625 198.265625 396.691406 200.691406 400.648438 200.78125 C 406.402344 200.960938 410.535156 196.289062 409.636719 190.628906 C 409.636719 190.449219 409.546875 190.269531 409.546875 190.089844 C 409.636719 189.730469 409.726562 189.28125 409.90625 188.921875 C 410.265625 189.101562 410.714844 189.191406 410.984375 189.460938 C 412.78125 191.617188 413.414062 194.222656 413.050781 197.007812 C 412.242188 203.566406 407.121094 207.878906 399.839844 207.878906 Z M 399.839844 207.878906 " fill-opacity="1" fill-rule="nonzero"/><path fill="#000000" d="M 36.585938 183.082031 C 34.789062 183.082031 33.800781 181.644531 34.519531 180.207031 C 34.878906 179.488281 35.507812 178.859375 36.046875 178.230469 C 42.519531 171.851562 49.800781 166.460938 57.621094 161.609375 C 65.261719 156.847656 73.351562 152.894531 81.535156 149.210938 C 82.882812 148.671875 84.230469 148.132812 85.578125 147.773438 C 85.9375 147.683594 86.386719 147.953125 86.746094 148.042969 C 86.566406 148.492188 86.566406 149.03125 86.296875 149.300781 C 85.847656 149.75 85.128906 150.109375 84.589844 150.46875 C 77.578125 154.960938 70.476562 159.183594 63.644531 163.945312 C 56.363281 168.976562 49.441406 174.277344 42.25 179.488281 C 40.902344 180.476562 39.464844 181.464844 38.027344 182.363281 C 37.578125 182.722656 36.949219 182.902344 36.585938 183.082031 Z M 36.585938 183.082031 " fill-opacity="1" fill-rule="nonzero"/><path fill="#000000" d="M 383.027344 254.421875 C 376.917969 254.421875 373.050781 252.804688 369.90625 249.929688 C 366.308594 246.605469 365.230469 242.382812 366.578125 237.621094 C 368.015625 232.769531 371.792969 230.433594 376.558594 229.625 C 380.0625 228.996094 383.386719 229.625 386.535156 231.242188 C 387.074219 231.511719 387.703125 231.78125 388.0625 232.230469 C 388.511719 232.769531 389.320312 233.757812 389.140625 234.027344 C 388.511719 234.925781 387.703125 234.027344 387.164062 233.667969 C 383.75 231.691406 380.152344 230.703125 376.378906 231.960938 C 374.757812 232.5 373.140625 233.488281 371.972656 234.65625 C 369.546875 237.082031 369.726562 240.40625 371.972656 242.921875 C 375.207031 246.515625 379.253906 247.773438 384.019531 247.054688 C 384.46875 246.964844 384.917969 246.875 385.277344 246.785156 C 389.949219 246.066406 391.660156 242.921875 391.210938 239.238281 C 391.121094 238.699219 391.660156 238.160156 391.929688 237.621094 C 392.46875 237.980469 393.1875 238.25 393.457031 238.789062 C 394.804688 242.292969 394.175781 245.707031 392.109375 248.761719 C 389.5 252.714844 385.816406 254.511719 383.027344 254.421875 Z M 383.027344 254.421875 " fill-opacity="1" fill-rule="nonzero"/><path fill="#000000" d="M 365.859375 195.480469 C 364.78125 195.390625 363.972656 195.390625 363.164062 195.300781 C 358.667969 194.851562 354.894531 197.367188 353.992188 201.589844 C 353.09375 205.8125 355.703125 210.574219 359.835938 211.832031 C 360.734375 212.101562 361.816406 212.191406 362.804688 212.011719 C 367.835938 211.203125 371.433594 205.183594 369.816406 200.421875 C 369.726562 200.242188 369.546875 199.972656 369.636719 199.792969 C 369.726562 199.253906 369.816406 198.804688 369.90625 198.265625 C 370.445312 198.445312 371.164062 198.445312 371.523438 198.804688 C 373.679688 201.140625 374.757812 204.015625 374.9375 207.160156 C 375.207031 213 370.085938 217.761719 363.792969 217.492188 C 356.601562 217.222656 350.847656 211.832031 350.488281 205.003906 C 350.039062 197.996094 355.792969 192.605469 362.625 193.503906 C 364.242188 193.773438 365.050781 194.222656 365.859375 195.480469 Z M 365.859375 195.480469 " fill-opacity="1" fill-rule="nonzero"/><path fill="#000000" d="M 406.582031 348.3125 C 406.671875 352.714844 406.582031 356.039062 405.320312 359.183594 C 405.050781 359.8125 404.78125 360.53125 404.332031 360.980469 C 404.0625 361.339844 403.433594 361.609375 402.984375 361.519531 C 402.625 361.429688 402.265625 360.890625 402.085938 360.441406 C 401.90625 360.171875 401.90625 359.722656 401.90625 359.453125 C 401.726562 352.535156 401.457031 345.617188 401.277344 338.699219 C 401.277344 337.621094 401.457031 336.632812 401.546875 335.554688 C 401.726562 334.566406 402.085938 333.757812 403.253906 333.757812 C 404.421875 333.757812 404.871094 334.566406 405.050781 335.554688 C 405.320312 336.8125 405.589844 338.070312 405.679688 339.328125 C 406.132812 342.652344 406.402344 345.976562 406.582031 348.3125 Z M 406.582031 348.3125 " fill-opacity="1" fill-rule="nonzero"/><path fill="#000000" d="M 391.570312 369.964844 C 391.570312 364.214844 391.570312 359.8125 391.570312 355.410156 C 391.570312 354.332031 391.75 353.253906 392.109375 352.175781 C 392.289062 351.726562 393.007812 351.277344 393.457031 351.277344 C 393.816406 351.277344 394.445312 351.996094 394.445312 352.445312 C 394.984375 360.351562 396.511719 368.167969 395.703125 376.164062 C 395.523438 377.960938 395.074219 379.757812 394.714844 381.554688 C 394.625 382.09375 394.445312 382.726562 394.085938 383.085938 C 393.726562 383.535156 393.1875 383.714844 392.648438 384.074219 C 392.46875 383.625 392.019531 383.085938 392.019531 382.636719 C 391.929688 377.960938 391.75 373.289062 391.570312 369.964844 Z M 391.570312 369.964844 " fill-opacity="1" fill-rule="nonzero"/><path fill="#000000" d="M 63.644531 182.542969 C 62.746094 183.171875 61.757812 183.710938 60.859375 184.429688 C 54.566406 189.640625 48.273438 194.851562 41.980469 200.152344 C 38.566406 203.117188 35.238281 206.171875 31.914062 209.136719 C 30.65625 210.304688 29.578125 210.484375 29.035156 209.675781 C 28.136719 208.507812 29.125 207.699219 29.847656 206.980469 C 38.746094 197.546875 48.992188 189.910156 60.230469 183.441406 C 61.21875 182.902344 62.386719 182.542969 63.464844 182.003906 C 63.554688 182.273438 63.644531 182.453125 63.644531 182.542969 Z M 63.644531 182.542969 " fill-opacity="1" fill-rule="nonzero"/><path fill="#000000" d="M 88.542969 131.957031 C 88.363281 132.136719 88.183594 132.316406 88.003906 132.40625 C 79.734375 136.988281 71.464844 141.480469 63.195312 146.0625 C 59.242188 148.222656 55.285156 150.378906 51.238281 152.535156 C 50.789062 152.804688 50.339844 153.074219 49.890625 153.074219 C 49.441406 153.164062 48.992188 152.894531 48.542969 152.804688 C 48.632812 152.355469 48.722656 151.816406 48.992188 151.457031 C 49.261719 151.097656 49.710938 150.828125 50.160156 150.648438 C 60.320312 144.265625 70.925781 138.515625 81.984375 133.753906 C 83.691406 133.035156 85.488281 132.496094 87.285156 131.867188 C 87.644531 131.777344 88.09375 131.777344 88.453125 131.777344 C 88.453125 131.777344 88.453125 131.867188 88.542969 131.957031 Z M 88.542969 131.957031 " fill-opacity="1" fill-rule="nonzero"/><path fill="#000000" d="M 137.804688 114.167969 C 137.535156 114.527344 137.535156 114.527344 137.535156 114.527344 C 135.109375 115.246094 134.210938 117.3125 133.3125 119.46875 C 132.320312 121.714844 131.152344 123.960938 130.164062 126.117188 C 134.300781 127.914062 138.34375 129.710938 142.210938 131.417969 C 143.109375 129.441406 144.097656 127.464844 144.90625 125.398438 C 145.175781 124.769531 145.175781 123.960938 145.085938 123.332031 C 144.816406 121.445312 144.367188 119.558594 144.097656 117.671875 C 144.007812 117.3125 144.367188 116.863281 144.457031 116.414062 C 144.726562 116.683594 145.175781 116.953125 145.355469 117.222656 C 146.703125 120.457031 147.785156 123.78125 146.164062 127.375 C 145.625 128.542969 145.355469 129.890625 144.726562 131.058594 C 144.457031 131.597656 143.828125 131.957031 143.289062 132.40625 C 143.109375 132.585938 142.839844 132.675781 142.75 132.855469 C 142.390625 134.292969 141.402344 134.203125 140.324219 133.753906 C 138.523438 133.035156 136.726562 132.136719 134.929688 131.328125 C 133.222656 130.519531 131.511719 129.621094 129.714844 128.8125 C 127.648438 127.914062 127.378906 126.925781 128.726562 125.128906 C 129.085938 124.589844 129.355469 123.960938 129.625 123.421875 C 130.613281 121.085938 131.691406 118.660156 132.679688 116.234375 C 133.042969 115.335938 133.582031 114.976562 134.570312 114.886719 C 135.558594 114.796875 136.546875 114.4375 137.804688 114.167969 Z M 137.804688 114.167969 " fill-opacity="1" fill-rule="nonzero"/><path fill="#000000" d="M 166.121094 124.320312 C 164.503906 123.871094 162.886719 123.601562 161.355469 122.882812 C 158.300781 121.355469 155.335938 119.648438 152.367188 118.03125 C 151.738281 117.671875 151.199219 117.132812 150.75 116.503906 C 150.03125 115.515625 150.121094 114.4375 150.839844 113.449219 C 151.019531 113.179688 151.46875 113.089844 151.828125 112.910156 C 152.007812 113.269531 152.097656 113.539062 152.277344 113.898438 C 152.546875 114.4375 152.726562 115.15625 153.175781 115.425781 C 156.863281 117.402344 160.546875 119.289062 164.324219 121.085938 C 166.300781 121.984375 166.839844 121.804688 168.007812 120.007812 C 169.265625 118.121094 170.527344 116.234375 171.785156 114.257812 C 172.144531 113.71875 172.234375 112.910156 172.503906 112.371094 C 172.773438 111.921875 173.132812 111.382812 173.582031 111.203125 C 173.941406 111.113281 174.660156 111.292969 174.839844 111.652344 C 175.109375 112.101562 175.199219 112.820312 174.929688 113.179688 C 172.953125 116.414062 170.886719 119.648438 168.816406 122.882812 C 168.1875 123.78125 167.378906 124.320312 166.121094 124.320312 Z M 166.121094 124.320312 " fill-opacity="1" fill-rule="nonzero"/><path fill="#000000" d="M 382.039062 381.828125 C 382.21875 378.769531 382.308594 375.714844 382.488281 372.660156 C 382.578125 371.761719 382.488281 370.324219 383.929688 370.414062 C 385.367188 370.414062 385.1875 371.761719 385.277344 372.75 C 385.726562 378.859375 386.085938 384.972656 385.367188 391.171875 C 385.277344 391.980469 385.1875 392.789062 384.917969 393.507812 C 384.738281 393.957031 384.199219 394.316406 383.75 394.765625 C 383.386719 394.316406 382.9375 393.867188 382.757812 393.417969 C 382.488281 392.519531 382.488281 391.53125 382.488281 390.542969 C 382.488281 387.667969 382.488281 384.882812 382.488281 382.007812 C 382.308594 381.828125 382.128906 381.828125 382.039062 381.828125 Z M 382.039062 381.828125 " fill-opacity="1" fill-rule="nonzero"/><path fill="#000000" d="M 124.140625 89.640625 C 122.523438 92.964844 120.90625 96.378906 119.289062 99.792969 C 119.46875 99.972656 119.558594 100.0625 119.738281 100.152344 C 124.050781 102.039062 128.367188 103.835938 132.679688 105.722656 C 133.3125 105.992188 133.671875 105.992188 134.121094 105.453125 C 134.570312 104.914062 135.019531 104.285156 135.648438 104.015625 C 136.097656 103.746094 137.085938 103.746094 137.355469 104.015625 C 137.714844 104.285156 137.894531 105.363281 137.625 105.722656 C 136.726562 106.890625 135.738281 108.058594 134.660156 108.957031 C 134.300781 109.226562 133.402344 109.136719 132.863281 108.867188 C 128.277344 106.710938 123.78125 104.464844 119.289062 102.308594 C 117.398438 101.410156 117.039062 100.511719 118.027344 98.625 C 119.46875 96.019531 121.085938 93.414062 122.613281 90.808594 C 122.882812 90.359375 123.332031 89.910156 123.691406 89.460938 C 123.871094 89.460938 123.960938 89.550781 124.140625 89.640625 Z M 124.140625 89.640625 " fill-opacity="1" fill-rule="nonzero"/><path fill="#000000" d="M 150.660156 104.734375 C 148.414062 104.105469 146.253906 103.386719 145.175781 101.050781 C 144.367188 99.253906 143.378906 97.636719 142.660156 95.839844 C 142.390625 95.121094 142.210938 94.042969 142.570312 93.414062 C 144.367188 90 146.433594 86.675781 148.414062 83.261719 C 148.59375 82.992188 149.042969 82.8125 149.402344 82.632812 C 149.402344 83.082031 149.582031 83.621094 149.402344 83.890625 C 148.234375 86.40625 147.0625 89.011719 145.625 91.347656 C 144.546875 93.234375 144.097656 94.851562 145.625 96.828125 C 146.433594 97.726562 146.703125 99.164062 147.332031 100.242188 C 147.785156 100.960938 148.414062 101.589844 149.042969 102.039062 C 150.210938 102.9375 151.378906 102.757812 152.636719 101.949219 C 153.714844 101.230469 154.976562 100.601562 156.234375 100.152344 C 156.683594 99.972656 157.3125 100.152344 157.851562 100.152344 C 157.582031 100.691406 157.402344 101.410156 156.953125 101.589844 C 155.15625 102.578125 153.355469 103.476562 151.46875 104.464844 C 151.289062 104.554688 150.929688 104.644531 150.660156 104.734375 Z M 150.660156 104.734375 " fill-opacity="1" fill-rule="nonzero"/><path fill="#000000" d="M 147.152344 116.953125 C 147.242188 116.59375 147.152344 116.144531 147.332031 115.785156 C 147.511719 115.425781 147.875 115.066406 148.144531 115.066406 C 148.414062 115.066406 149.042969 115.335938 149.042969 115.605469 C 149.582031 117.3125 150.03125 119.109375 150.390625 120.90625 C 150.480469 121.265625 149.941406 121.894531 149.671875 121.984375 C 149.222656 122.074219 148.503906 121.714844 148.414062 121.445312 C 147.785156 120.097656 147.421875 118.570312 146.882812 117.132812 C 147.0625 117.042969 147.0625 116.953125 147.152344 116.953125 Z M 147.152344 116.953125 " fill-opacity="1" fill-rule="nonzero"/><path fill="#000000" d="M 162.253906 88.472656 C 162.253906 88.921875 162.347656 89.191406 162.253906 89.371094 C 161.175781 91.617188 160.1875 93.773438 159.019531 96.019531 C 158.839844 96.46875 158.03125 96.558594 157.582031 96.828125 C 157.492188 96.199219 157.222656 95.480469 157.492188 95.121094 C 158.75 93.054688 160.097656 91.078125 161.355469 89.011719 C 161.535156 88.832031 161.804688 88.742188 162.253906 88.472656 Z M 162.253906 88.472656 " fill-opacity="1" fill-rule="nonzero"/><path fill="#000000" d="M 132.589844 113.988281 C 132.5 113.898438 132.140625 113.808594 132.140625 113.71875 C 132.140625 113.449219 132.140625 113.089844 132.320312 112.910156 C 132.953125 112.460938 133.582031 111.921875 134.300781 111.652344 C 135.558594 111.113281 136.816406 110.664062 138.074219 110.304688 C 138.34375 110.214844 138.703125 110.484375 138.972656 110.574219 C 138.882812 110.84375 138.792969 111.203125 138.613281 111.292969 C 136.636719 112.191406 134.660156 113.089844 132.589844 113.988281 Z M 132.589844 113.988281 " fill-opacity="1" fill-rule="nonzero"/></svg>