<svg xmlns="http://www.w3.org/2000/svg" xmlns:xlink="http://www.w3.org/1999/xlink" width="600" zoomAndPan="magnify" viewBox="0 0 450 449.999984" height="600" preserveAspectRatio="xMidYMid meet" version="1.0"><defs><clipPath id="8a5ef00cf3"><path d="M 0 19.40625 L 450 19.40625 L 450 430.40625 L 0 430.40625 Z M 0 19.40625 " clip-rule="nonzero"/></clipPath></defs><rect x="-45" width="540" fill="#ffffff" y="-44.999998" height="539.99998" fill-opacity="1"/><rect x="-45" width="540" fill="#ffffff" y="-44.999998" height="539.99998" fill-opacity="1"/><g clip-path="url(#8a5ef00cf3)"><path fill="#000000" d="M 409.265625 19.699219 L 40.734375 19.699219 C 18.273438 19.699219 0 37.964844 0 60.417969 L 0 290.628906 C 0 313.078125 18.273438 331.34375 40.734375 331.34375 L 149.308594 331.34375 L 149.308594 370 L 105.609375 370 C 85.863281 370 69.800781 383.484375 69.800781 400.058594 L 69.800781 422.859375 C 69.800781 426.863281 73.050781 430.113281 77.058594 430.113281 L 372.941406 430.113281 C 376.949219 430.113281 380.199219 426.863281 380.199219 422.859375 L 380.199219 400.058594 C 380.199219 383.484375 364.136719 370 344.390625 370 L 300.691406 370 L 300.691406 331.34375 L 409.265625 331.34375 C 431.726562 331.34375 450 313.078125 450 290.628906 L 450 60.417969 C 450 37.964844 431.726562 19.699219 409.265625 19.699219 Z M 365.683594 400.058594 L 365.683594 415.605469 L 84.316406 415.605469 L 84.316406 400.058594 C 84.316406 391.632812 94.066406 384.511719 105.609375 384.511719 L 344.390625 384.511719 C 355.933594 384.511719 365.683594 391.632812 365.683594 400.058594 Z M 286.175781 370.003906 L 163.824219 370.003906 L 163.824219 331.347656 L 286.175781 331.347656 Z M 435.484375 290.628906 C 435.484375 305.078125 423.722656 316.835938 409.261719 316.835938 L 40.734375 316.835938 C 26.277344 316.835938 14.515625 305.078125 14.515625 290.628906 L 14.515625 60.417969 C 14.515625 45.964844 26.277344 34.210938 40.734375 34.210938 L 409.265625 34.210938 C 423.722656 34.210938 435.484375 45.96875 435.484375 60.417969 Z M 410.101562 47.683594 L 39.894531 47.683594 C 33.332031 47.683594 27.996094 53.019531 27.996094 59.578125 L 27.996094 95.527344 C 24.101562 95.660156 20.984375 98.847656 20.984375 102.769531 L 20.984375 221.4375 C 20.984375 225.359375 24.101562 228.546875 27.996094 228.679688 L 27.996094 267.722656 C 27.996094 271.730469 31.246094 274.976562 35.253906 274.976562 L 414.746094 274.976562 C 418.753906 274.976562 422.003906 271.730469 422.003906 267.722656 L 422.003906 59.578125 C 422.003906 53.019531 416.664062 47.683594 410.101562 47.683594 Z M 35.5 214.242188 L 35.5 110.066406 C 69.824219 110.453125 81.957031 113.738281 106.675781 120.433594 C 107.347656 120.613281 108.023438 120.796875 108.714844 120.984375 L 108.714844 226.398438 C 90.398438 218.78125 66.257812 214.78125 35.5 214.242188 Z M 407.488281 260.46875 L 42.511719 260.46875 L 42.511719 228.957031 C 73.265625 230.144531 96.71875 235.292969 112.34375 244.308594 C 113.464844 244.957031 114.71875 245.28125 115.972656 245.28125 C 117.222656 245.28125 118.476562 244.957031 119.601562 244.308594 C 137.558594 233.945312 165.855469 228.691406 203.699219 228.691406 C 207.707031 228.691406 210.957031 225.441406 210.957031 221.4375 L 210.957031 102.769531 C 210.957031 98.765625 207.707031 95.515625 203.699219 95.515625 C 161.765625 95.515625 148.300781 99.164062 121.472656 106.425781 C 119.703125 106.90625 117.875 107.402344 115.972656 107.914062 C 114.070312 107.402344 112.238281 106.90625 110.472656 106.425781 C 86.945312 100.054688 73.691406 96.46875 42.511719 95.683594 L 42.511719 62.191406 L 407.488281 62.191406 Z M 123.230469 226.398438 L 123.230469 120.984375 C 123.917969 120.796875 124.597656 120.613281 125.265625 120.433594 C 149.988281 113.738281 162.117188 110.453125 196.441406 110.066406 L 196.441406 214.242188 C 165.683594 214.78125 141.542969 218.78125 123.230469 226.398438 Z M 98.621094 133.082031 C 97.8125 136.394531 94.84375 138.617188 91.578125 138.617188 C 91.007812 138.617188 90.429688 138.550781 89.847656 138.410156 C 76.988281 135.269531 66.105469 133.703125 52.277344 133.007812 C 48.273438 132.804688 45.191406 129.398438 45.394531 125.394531 C 45.597656 121.394531 49.007812 118.324219 53.007812 118.515625 C 67.8125 119.261719 79.484375 120.941406 93.296875 124.316406 C 97.1875 125.265625 99.574219 129.191406 98.621094 133.082031 Z M 45.394531 175.480469 C 45.632812 171.480469 49.058594 168.421875 53.070312 168.667969 C 68.253906 169.566406 80.691406 171.441406 93.398438 174.742188 C 97.277344 175.753906 99.605469 179.714844 98.597656 183.589844 C 97.746094 186.855469 94.800781 189.023438 91.578125 189.023438 C 90.972656 189.023438 90.359375 188.945312 89.746094 188.785156 C 77.988281 185.730469 66.414062 183.992188 52.210938 183.152344 C 48.210938 182.914062 45.160156 179.480469 45.394531 175.480469 Z M 45.394531 150.4375 C 45.613281 146.4375 49.03125 143.367188 53.042969 143.59375 C 68.066406 144.421875 80.125 146.203125 93.351562 149.546875 C 97.238281 150.527344 99.589844 154.476562 98.609375 158.359375 C 97.777344 161.648438 94.820312 163.835938 91.578125 163.835938 C 90.988281 163.835938 90.386719 163.765625 89.792969 163.613281 C 77.515625 160.507812 66.289062 158.855469 52.242188 158.082031 C 48.238281 157.863281 45.175781 154.441406 45.394531 150.4375 Z M 98.585938 208.78125 C 97.722656 212.03125 94.785156 214.175781 91.574219 214.175781 C 90.957031 214.175781 90.332031 214.097656 89.707031 213.933594 C 78.394531 210.929688 66.472656 209.117188 52.1875 208.21875 C 48.183594 207.96875 45.144531 204.523438 45.398438 200.527344 C 45.648438 196.527344 49.089844 193.488281 53.09375 193.738281 C 68.359375 194.695312 81.175781 196.65625 93.433594 199.910156 C 97.308594 200.9375 99.613281 204.910156 98.585938 208.78125 Z M 186.542969 200.523438 C 186.792969 204.523438 183.753906 207.96875 179.753906 208.21875 C 165.464844 209.113281 153.542969 210.929688 142.234375 213.929688 C 141.609375 214.097656 140.980469 214.175781 140.363281 214.175781 C 137.152344 214.175781 134.21875 212.03125 133.355469 208.78125 C 132.324219 204.910156 134.632812 200.9375 138.507812 199.90625 C 150.761719 196.65625 163.582031 194.695312 178.84375 193.738281 C 182.828125 193.480469 186.292969 196.527344 186.542969 200.523438 Z M 186.546875 150.4375 C 186.769531 154.441406 183.703125 157.863281 179.699219 158.082031 C 165.65625 158.855469 154.425781 160.507812 142.152344 163.613281 C 141.554688 163.765625 140.953125 163.835938 140.367188 163.835938 C 137.121094 163.835938 134.167969 161.648438 133.335938 158.359375 C 132.351562 154.476562 134.703125 150.53125 138.589844 149.546875 C 151.816406 146.203125 163.875 144.421875 178.902344 143.59375 C 182.890625 143.375 186.328125 146.4375 186.546875 150.4375 Z M 133.320312 133.082031 C 132.367188 129.191406 134.753906 125.265625 138.648438 124.3125 C 152.460938 120.941406 164.132812 119.261719 178.9375 118.515625 C 182.929688 118.316406 186.347656 121.394531 186.550781 125.394531 C 186.75 129.398438 183.667969 132.804688 179.667969 133.003906 C 165.839844 133.703125 154.953125 135.265625 142.09375 138.40625 C 141.515625 138.550781 140.933594 138.617188 140.367188 138.617188 C 137.097656 138.617188 134.128906 136.394531 133.320312 133.082031 Z M 186.546875 175.480469 C 186.78125 179.480469 183.730469 182.914062 179.730469 183.152344 C 165.527344 183.992188 153.953125 185.730469 142.199219 188.785156 C 141.585938 188.945312 140.96875 189.023438 140.363281 189.023438 C 137.140625 189.023438 134.195312 186.855469 133.34375 183.589844 C 132.335938 179.714844 134.664062 175.753906 138.542969 174.746094 C 151.25 171.441406 163.6875 169.566406 178.871094 168.667969 C 182.875 168.421875 186.308594 171.480469 186.546875 175.480469 Z M 249.859375 146.988281 C 247.058594 148.070312 245.210938 150.761719 245.210938 153.761719 L 245.210938 168.902344 C 245.210938 171.902344 247.058594 174.59375 249.859375 175.671875 L 255.722656 177.925781 C 256.691406 181.003906 257.929688 183.988281 259.421875 186.847656 L 256.871094 192.589844 C 255.652344 195.332031 256.25 198.542969 258.371094 200.664062 L 269.082031 211.371094 C 271.207031 213.492188 274.417969 214.089844 277.160156 212.871094 L 282.910156 210.320312 C 285.773438 211.8125 288.753906 213.046875 291.832031 214.015625 L 294.085938 219.878906 C 295.164062 222.679688 297.859375 224.527344 300.859375 224.527344 L 316.007812 224.527344 C 319.011719 224.527344 321.703125 222.679688 322.785156 219.878906 L 325.039062 214.019531 C 328.117188 213.050781 331.101562 211.8125 333.964844 210.320312 L 339.707031 212.871094 C 342.453125 214.089844 345.664062 213.492188 347.785156 211.371094 L 358.5 200.664062 C 360.621094 198.542969 361.21875 195.332031 360 192.589844 L 357.445312 186.84375 C 358.941406 183.984375 360.179688 181.003906 361.144531 177.925781 L 367.007812 175.671875 C 369.8125 174.59375 371.660156 171.902344 371.660156 168.902344 L 371.660156 153.757812 C 371.660156 150.757812 369.8125 148.066406 367.007812 146.988281 L 361.148438 144.734375 C 360.179688 141.65625 358.941406 138.675781 357.449219 135.8125 L 360 130.070312 C 361.21875 127.328125 360.621094 124.117188 358.5 121.996094 L 347.785156 111.289062 C 345.664062 109.167969 342.449219 108.570312 339.707031 109.789062 L 333.960938 112.339844 C 331.097656 110.847656 328.117188 109.609375 325.039062 108.644531 L 322.78125 102.78125 C 321.703125 99.980469 319.011719 98.132812 316.007812 98.132812 L 300.859375 98.132812 C 297.855469 98.132812 295.164062 99.980469 294.085938 102.78125 L 291.828125 108.644531 C 288.753906 109.613281 285.773438 110.847656 282.910156 112.339844 L 277.160156 109.789062 C 274.417969 108.570312 271.207031 109.167969 269.082031 111.289062 L 258.371094 121.996094 C 256.25 124.121094 255.652344 127.328125 256.871094 130.070312 L 259.421875 135.816406 C 257.929688 138.675781 256.691406 141.65625 255.722656 144.734375 Z M 259.726562 158.742188 L 264.347656 156.960938 C 266.582031 156.101562 268.25 154.199219 268.804688 151.871094 C 269.800781 147.679688 271.457031 143.691406 273.722656 140.015625 C 274.976562 137.976562 275.144531 135.453125 274.175781 133.265625 L 272.160156 128.734375 L 275.824219 125.070312 L 280.359375 127.085938 C 282.546875 128.054688 285.074219 127.886719 287.109375 126.632812 C 290.789062 124.367188 294.78125 122.714844 298.972656 121.714844 C 301.300781 121.164062 303.207031 119.496094 304.066406 117.265625 L 305.84375 112.640625 L 311.027344 112.640625 L 312.804688 117.265625 C 313.664062 119.496094 315.570312 121.160156 317.898438 121.714844 C 322.089844 122.710938 326.082031 124.367188 329.761719 126.628906 C 331.796875 127.882812 334.324219 128.054688 336.511719 127.082031 L 341.046875 125.070312 L 344.710938 128.734375 L 342.699219 133.261719 C 341.726562 135.449219 341.894531 137.972656 343.152344 140.011719 C 345.417969 143.6875 347.070312 147.679688 348.070312 151.871094 C 348.625 154.195312 350.289062 156.101562 352.523438 156.960938 L 357.144531 158.738281 L 357.144531 163.917969 L 352.519531 165.699219 C 350.289062 166.554688 348.621094 168.460938 348.066406 170.789062 C 347.070312 174.976562 345.414062 178.964844 343.148438 182.644531 C 341.894531 184.679688 341.726562 187.207031 342.695312 189.390625 L 344.710938 193.925781 L 341.046875 197.585938 L 336.515625 195.574219 C 334.328125 194.601562 331.800781 194.773438 329.761719 196.027344 C 326.085938 198.292969 322.09375 199.945312 317.898438 200.945312 C 315.570312 201.5 313.664062 203.164062 312.804688 205.394531 L 311.027344 210.015625 L 305.84375 210.015625 L 304.066406 205.394531 C 303.207031 203.160156 301.300781 201.496094 298.972656 200.941406 C 294.78125 199.945312 290.789062 198.292969 287.109375 196.027344 C 285.074219 194.773438 282.546875 194.605469 280.359375 195.574219 L 275.824219 197.585938 L 272.160156 193.925781 L 274.171875 189.398438 C 275.144531 187.210938 274.972656 184.683594 273.71875 182.648438 C 271.453125 178.972656 269.796875 174.980469 268.800781 170.789062 C 268.246094 168.460938 266.582031 166.554688 264.347656 165.699219 L 259.726562 163.917969 Z M 308.433594 194.992188 C 327.003906 194.992188 342.113281 179.890625 342.113281 161.332031 C 342.113281 142.769531 327.003906 127.667969 308.433594 127.667969 C 289.867188 127.667969 274.757812 142.769531 274.757812 161.332031 C 274.757812 179.890625 289.867188 194.992188 308.433594 194.992188 Z M 308.433594 142.179688 C 319 142.179688 327.59375 150.769531 327.59375 161.332031 C 327.59375 171.890625 319 180.480469 308.433594 180.480469 C 297.871094 180.480469 289.273438 171.890625 289.273438 161.332031 C 289.273438 150.769531 297.871094 142.179688 308.433594 142.179688 Z M 374.726562 122.8125 C 372.707031 119.351562 373.878906 114.910156 377.34375 112.894531 C 380.804688 110.875 385.25 112.046875 387.269531 115.507812 C 395.34375 129.363281 399.613281 145.210938 399.613281 161.332031 C 399.613281 211.585938 358.710938 252.46875 308.433594 252.46875 C 292.527344 252.46875 276.949219 248.28125 263.273438 240.492188 C 262.578125 242.765625 260.785156 244.652344 258.328125 245.351562 C 257.664062 245.542969 256.992188 245.632812 256.332031 245.632812 C 253.171875 245.632812 250.265625 243.554688 249.355469 240.367188 L 245.109375 225.484375 C 244.496094 223.339844 244.90625 221.03125 246.21875 219.230469 C 247.527344 217.425781 249.597656 216.324219 251.828125 216.246094 L 267.300781 215.691406 C 271.324219 215.539062 274.671875 218.675781 274.8125 222.679688 C 274.902344 225.125 273.765625 227.328125 271.957031 228.707031 C 283.089844 234.726562 295.632812 237.960938 308.433594 237.960938 C 350.707031 237.960938 385.097656 203.585938 385.097656 161.332031 C 385.097656 147.773438 381.511719 134.453125 374.726562 122.8125 Z M 230.203125 208.15625 C 221.730469 194.050781 217.253906 177.855469 217.253906 161.332031 C 217.253906 111.078125 258.160156 70.191406 308.433594 70.191406 C 324.378906 70.191406 339.925781 74.386719 353.59375 82.175781 C 354.289062 79.898438 356.082031 78.007812 358.542969 77.308594 C 362.398438 76.207031 366.414062 78.441406 367.511719 82.292969 L 371.761719 97.175781 C 372.375 99.320312 371.964844 101.628906 370.652344 103.429688 C 369.339844 105.234375 367.273438 106.335938 365.042969 106.417969 L 349.570312 106.972656 C 349.480469 106.976562 349.390625 106.976562 349.304688 106.976562 C 345.417969 106.976562 342.195312 103.898438 342.054688 99.980469 C 341.96875 97.53125 343.109375 95.324219 344.925781 93.945312 C 333.800781 87.925781 321.269531 84.703125 308.433594 84.703125 C 266.164062 84.703125 231.773438 119.078125 231.773438 161.332031 C 231.773438 175.226562 235.535156 188.835938 242.648438 200.691406 C 244.710938 204.125 243.597656 208.582031 240.160156 210.644531 C 238.988281 211.34375 237.703125 211.679688 236.433594 211.679688 C 233.964844 211.679688 231.5625 210.425781 230.203125 208.15625 Z M 230.203125 208.15625 " fill-opacity="1" fill-rule="nonzero"/></g></svg>